<svg xmlns="http://www.w3.org/2000/svg" width="1200" height="630" viewBox="0 0 1200 630">
  <defs>
    <radialGradient id="g1" cx="30%" cy="20%" r="55%">
      <stop offset="0%" stop-color="#0EA5E9" stop-opacity="0.18"/>
      <stop offset="100%" stop-color="#020B18" stop-opacity="0"/>
    </radialGradient>
    <linearGradient id="hl" x1="0%" y1="0%" x2="100%" y2="0%">
      <stop offset="0%" stop-color="#38BDF8"/>
      <stop offset="100%" stop-color="#818CF8"/>
    </linearGradient>
    <linearGradient id="badge-grad" x1="0%" y1="0%" x2="100%" y2="0%">
      <stop offset="0%" stop-color="#0EA5E9" stop-opacity="0.2"/>
      <stop offset="100%" stop-color="#6366F1" stop-opacity="0.2"/>
    </linearGradient>
  </defs>
  <rect width="1200" height="630" fill="#020B18"/>
  <rect width="1200" height="630" fill="url(#g1)"/>
  <g stroke="#0EA5E9" stroke-opacity="0.05" stroke-width="1">
    <line x1="0" y1="105" x2="1200" y2="105"/><line x1="0" y1="210" x2="1200" y2="210"/>
    <line x1="0" y1="315" x2="1200" y2="315"/><line x1="0" y1="420" x2="1200" y2="420"/>
    <line x1="600" y1="0" x2="600" y2="630"/><line x1="900" y1="0" x2="900" y2="630"/>
  </g>
  <rect x="0" y="0" width="1200" height="3" fill="url(#hl)"/>
  <!-- Logo -->
  <rect x="80" y="72" width="44" height="44" rx="10" fill="#0EA5E9"/>
  <text x="102" y="103" font-family="Arial,sans-serif" font-size="24" font-weight="700" fill="white" text-anchor="middle">⚡</text>
  <text x="138" y="103" font-family="Arial,sans-serif" font-size="26" font-weight="800" fill="white">IRFA<tspan fill="#38BDF8">tech</tspan></text>
  <!-- Service label -->
  <rect x="80" y="160" width="170" height="32" rx="6" fill="#0EA5E9" fill-opacity="0.15" stroke="#0EA5E9" stroke-opacity="0.4" stroke-width="1"/>
  <text x="165" y="181" font-family="Arial,sans-serif" font-size="13" fill="#38BDF8" text-anchor="middle" font-weight="600">ERP Solutions</text>
  <!-- Headline -->
  <text x="80" y="268" font-family="Arial,sans-serif" font-size="58" font-weight="800" fill="white">Stop Managing Your</text>
  <text x="80" y="340" font-family="Arial,sans-serif" font-size="58" font-weight="800" fill="url(#hl)">Business in Spreadsheets</text>
  <!-- Sub -->
  <text x="80" y="400" font-family="Arial,sans-serif" font-size="20" fill="#94A3B8">Odoo ERP implementation for SMBs — inventory, billing,</text>
  <text x="80" y="428" font-family="Arial,sans-serif" font-size="20" fill="#94A3B8">CRM, HR and operations in one real-time system.</text>
  <!-- Bottom -->
  <rect x="0" y="575" width="1200" height="55" fill="#071E3D"/>
  <text x="80" y="609" font-family="Arial,sans-serif" font-size="15" fill="#64748B">irfatech.in/services/erp-solutions</text>
  <text x="1120" y="609" font-family="Arial,sans-serif" font-size="15" fill="#38BDF8" text-anchor="end">Free ERP Consultation →</text>
</svg>
